<svg id="Layer_1" enable-background="new 0 0 512.063 512.063" height="512" viewBox="0 0 512.063 512.063" width="512" xmlns="http://www.w3.org/2000/svg"><g><path d="m496.061 256.02c0 158.89-152.42 274.895-306.38 230.71-100.958-29.003-173.62-121.886-173.62-230.71 0-132.526 107.425-240 240-240 132.555 0 240 107.456 240 240z" fill="#c0b3ff"/></g><g><path d="m473.301 358.15c-80.404 170.777-317.566 185.987-419.12 27.68 15.58-17.51 35.08-31.57 56.63-40.75 44.741-19.054 72.919-8.69 106.86-11.5 26.09-2.15 51.44-12.48 71.61-29.18 12.81-10.6 23.46-23.59 36.02-34.48 42.976-37.267 89.498-30.429 109.11-2.65 19.457 27.531 9.513 72.275 38.89 90.88z" fill="#b49ef2"/></g><g><path d="m91.512 149.305c4.706-17.091 12.815-34.289 30.096-38.264 12.519-2.88 17.504 1.657 28.817-11.108 12.859-14.508 20.819-30.127 42.54-41.44 46.263-24.095 67.901 29.262 25.392 41.512-14.195 4.09-28.133 2.632-47.432 14.582-12.227 7.571-13.562 13.051-18.114 25.294-12.093 32.523-43.263 65.602-60.489 52.046-10.91-8.587-3.804-31.746-.81-42.622z" fill="#fff"/></g><g><path d="m208.061 344.02v-88c0-8.837 7.164-16 16-16s16 7.163 16 16v55.081l70.103-55.08-95.988-75.42c-6.948-5.46-8.155-15.518-2.696-22.466 5.459-6.949 15.519-8.155 22.466-2.696l112 88.001c8.155 6.407 8.141 18.766 0 25.162l-112 87.999c-10.408 8.175-25.885.815-25.885-12.581z" fill="#4d0033"/></g><g><path d="m496.061 273.046c-8.945 0-16.097-7.305-16.002-16.171.006-.572.006-1.138 0-1.709-.094-8.836 6.992-16.075 15.828-16.17 8.638-.146 16.074 6.853 16.17 15.828.009.8.009 1.592 0 2.393-.094 8.778-7.239 15.829-15.996 15.829z" fill="#4d0033"/></g><g><path d="m75.039 437.04c-100.045-100.044-100.06-261.979 0-362.038 57.477-57.479 136.37-82.594 213.02-72.982 110.897 13.896 194.632 96.384 217.557 196.787 1.967 8.615-3.422 17.193-12.037 19.16-8.614 1.966-17.193-3.422-19.16-12.037-20.095-88.01-93.538-160.029-190.34-172.158-134.31-16.836-252.021 87.717-252.021 222.25 0 156.286 155.097 262.071 298.904 211.162 70.981-25.102 126.494-85.653 143.618-161.778 1.94-8.621 10.502-14.033 19.121-12.099 8.621 1.939 14.038 10.5 12.099 19.122-43.901 195.166-287.752 267.621-430.761 124.611z" fill="#4d0033"/></g></svg>