<svg id="Capa_1" enable-background="new 0 0 512 512" height="512" viewBox="0 0 512 512" width="512" xmlns="http://www.w3.org/2000/svg"><g><g><path d="m199.805 33.29h291.382c11.495 0 20.813 9.318 20.813 20.813v208.13c0 11.495-9.318 20.813-20.813 20.813h-20.834c-1.138 0-2.06.922-2.06 2.06v39.67c0 9.178-11.096 13.774-17.586 7.284l-47.808-47.808c-.773-.773-1.821-1.207-2.914-1.207h-200.18c-11.495 0-20.813-9.318-20.813-20.813v-208.129c0-11.494 9.318-20.813 20.813-20.813z" fill="#734a9b"/><path d="m312.195 154.006h-133.203v108.228c0 11.495 9.318 20.813 20.813 20.813h156.098v-85.333c-.001-24.101-19.608-43.708-43.708-43.708z" fill="#5e3881"/><path d="m420.971 242.48c-24.913-9.016-44.12-22.396-58.936-37.423-3.338-3.386-3.879-8.652-1.332-12.667 23.295-36.735 31.004-77.032 33.274-93.097h23.001c4.231 0 7.92-3.261 8.046-7.49.131-4.376-3.377-7.963-7.723-7.963h-64.078v-16.925c0-4.23-3.26-7.92-7.488-8.047-4.376-.131-7.964 3.376-7.964 7.723v17.249h-63.755c-4.231 0-7.92 3.261-8.046 7.49-.131 4.376 3.377 7.963 7.723 7.963h104.621c-2.579 16.362-10.502 53.833-32.139 86.983-10.762-14.916-18.122-30.323-23.129-43.991-1.452-3.963-5.756-6.305-9.767-4.99-4.169 1.368-6.348 5.9-4.858 9.99 5.175 14.198 12.689 30.141 23.547 45.722 2.73 3.918 2.431 9.223-.779 12.758-4.023 4.429-8.373 8.656-13.081 12.6-3.236 2.711-3.897 7.576-1.27 10.88 1.532 1.926 3.784 2.921 6.054 2.921 1.746 0 3.502-.589 4.947-1.795 7.002-5.845 13.275-12.212 18.906-18.892 16.759 18.269 39.125 34.731 68.967 45.531.868.314 1.756.463 2.629.463 3.161 0 6.128-1.955 7.266-5.099 1.452-4.011-.624-8.441-4.636-9.894z" fill="#d8e2f1"/><path d="m491.187 33.29h-20.698c11.495 0 20.813 9.318 20.813 20.813v208.13c0 11.495-9.318 20.813-20.813 20.813h20.698c11.495 0 20.813-9.318 20.813-20.813v-208.13c0-11.494-9.318-20.813-20.813-20.813z" fill="#5e3881"/></g><g><path d="m312.195 176.9h-291.382c-11.495 0-20.813 9.318-20.813 20.813v208.13c0 11.495 9.318 20.813 20.813 20.813h18.774c2.276 0 4.121 1.845 4.121 4.121v37.61c0 9.178 11.097 13.774 17.586 7.284l49.015-49.015h201.886c11.495 0 20.813-9.318 20.813-20.813v-208.13c0-11.495-9.318-20.813-20.813-20.813z" fill="#d8e2f1"/><path d="m312.195 176.9h-32.26c11.495 0 20.813 9.318 20.813 20.813v208.13c0 11.495-9.318 20.813-20.813 20.813h32.26c11.495 0 20.813-9.318 20.813-20.813v-208.13c0-11.495-9.318-20.813-20.813-20.813z" fill="#b9cbea"/><path d="m71.953 432.752-28.245 28.245v7.389c0 9.178 11.096 13.774 17.586 7.284l47.808-47.808c.773-.773 1.821-1.207 2.914-1.207h-25.346c-5.52.001-10.814 2.194-14.717 6.097z" fill="#d0e2e7"/></g><path d="m246.035 390.627-68.149-180.582c-.027-.07-.055-.141-.083-.211-1.84-4.472-6.15-7.359-10.984-7.359-.004 0-.008 0-.012 0-4.839.005-9.149 2.901-10.982 7.38-.024.058-.047.117-.069.176l-68.775 180.575c-1.519 3.987.482 8.451 4.47 9.97 3.988 1.52 8.451-.483 9.97-4.471l15.233-39.996h99.837l15.086 39.975c1.168 3.094 4.108 5 7.23 5 .906 0 1.828-.161 2.726-.5 3.994-1.506 6.009-5.964 4.502-9.957zm-123.495-49.971 44.262-116.215 43.858 116.215z" fill="#5766cb"/></g></svg>